solid STL generated by MeshLab
  facet normal  0.000000e+00  1.000000e+00 -0.000000e+00
    outer loop
      vertex   1.602907e+00  1.362136e+00  1.000000e-06
      vertex   6.029066e-01  1.362136e+00  1.000000e-06
      vertex   1.602907e+00  1.362136e+00  1.000001e+00
    endloop
  endfacet
  facet normal  0.000000e+00  1.000000e+00  0.000000e+00
    outer loop
      vertex   1.602907e+00  1.362136e+00  1.000001e+00
      vertex   6.029066e-01  1.362136e+00  1.000000e-06
      vertex   6.029066e-01  1.362136e+00  1.000001e+00
    endloop
  endfacet
  facet normal  1.000000e+00  0.000000e+00  0.000000e+00
    outer loop
      vertex   1.602907e+00  3.621356e-01  1.000000e-06
      vertex   1.602907e+00  1.362136e+00  1.000000e-06
      vertex   1.602907e+00  3.621356e-01  1.000001e+00
    endloop
  endfacet
  facet normal  1.000000e+00 -0.000000e+00  0.000000e+00
    outer loop
      vertex   1.602907e+00  3.621356e-01  1.000001e+00
      vertex   1.602907e+00  1.362136e+00  1.000000e-06
      vertex   1.602907e+00  1.362136e+00  1.000001e+00
    endloop
  endfacet
  facet normal  0.000000e+00 -1.000000e+00  0.000000e+00
    outer loop
      vertex   6.029066e-01  3.621356e-01  1.000000e-06
      vertex   1.602907e+00  3.621356e-01  1.000000e-06
      vertex   6.029066e-01  3.621356e-01  1.000001e+00
    endloop
  endfacet
  facet normal  0.000000e+00 -1.000000e+00  0.000000e+00
    outer loop
      vertex   6.029066e-01  3.621356e-01  1.000001e+00
      vertex   1.602907e+00  3.621356e-01  1.000000e-06
      vertex   1.602907e+00  3.621356e-01  1.000001e+00
    endloop
  endfacet
  facet normal -1.000000e+00  0.000000e+00  0.000000e+00
    outer loop
      vertex   6.029066e-01  1.362136e+00  1.000000e-06
      vertex   6.029066e-01  3.621356e-01  1.000000e-06
      vertex   6.029066e-01  1.362136e+00  1.000001e+00
    endloop
  endfacet
  facet normal -1.000000e+00 -0.000000e+00  0.000000e+00
    outer loop
      vertex   6.029066e-01  1.362136e+00  1.000001e+00
      vertex   6.029066e-01  3.621356e-01  1.000000e-06
      vertex   6.029066e-01  3.621356e-01  1.000001e+00
    endloop
  endfacet
  facet normal  0.000000e+00  0.000000e+00  1.000000e+00
    outer loop
      vertex   6.029066e-01  3.621356e-01  1.000001e+00
      vertex   1.602907e+00  3.621356e-01  1.000001e+00
      vertex   6.029066e-01  1.362136e+00  1.000001e+00
    endloop
  endfacet
  facet normal -0.000000e+00  0.000000e+00  1.000000e+00
    outer loop
      vertex   6.029066e-01  1.362136e+00  1.000001e+00
      vertex   1.602907e+00  3.621356e-01  1.000001e+00
      vertex   1.602907e+00  1.362136e+00  1.000001e+00
    endloop
  endfacet
  facet normal  0.000000e+00  0.000000e+00 -1.000000e+00
    outer loop
      vertex   6.029066e-01  1.362136e+00  1.000000e-06
      vertex   1.602907e+00  1.362136e+00  1.000000e-06
      vertex   6.029066e-01  3.621356e-01  1.000000e-06
    endloop
  endfacet
  facet normal  0.000000e+00  0.000000e+00 -1.000000e+00
    outer loop
      vertex   6.029066e-01  3.621356e-01  1.000000e-06
      vertex   1.602907e+00  1.362136e+00  1.000000e-06
      vertex   1.602907e+00  3.621356e-01  1.000000e-06
    endloop
  endfacet
  facet normal  0.0  0.0  0.0
    outer loop
      vertex   0.0  0.0  0.0
	  vertex   1.0  0.5  0.2
      vertex   -1.0  -1.0  -1.0
    endloop
  endfacet
endsolid vcg
